<?xml version="1.0" encoding="UTF-8" standalone="no"?>
<!-- Created with Inkscape (http://www.inkscape.org/) -->

<svg
   xmlns:dc="http://purl.org/dc/elements/1.1/"
   xmlns:cc="http://creativecommons.org/ns#"
   xmlns:rdf="http://www.w3.org/1999/02/22-rdf-syntax-ns#"
   xmlns:svg="http://www.w3.org/2000/svg"
   xmlns="http://www.w3.org/2000/svg"
   xmlns:sodipodi="http://sodipodi.sourceforge.net/DTD/sodipodi-0.dtd"
   xmlns:inkscape="http://www.inkscape.org/namespaces/inkscape"
   width="210mm"
   height="297mm"
   viewBox="0 0 210 297"
   version="1.1"
   id="svg5115"
   inkscape:version="0.92.5 (2060ec1f9f, 2020-04-08)"
   sodipodi:docname="bse-logo.svg">
  <defs
     id="defs5109" />
  <sodipodi:namedview
     id="base"
     pagecolor="#ffffff"
     bordercolor="#666666"
     borderopacity="1.0"
     inkscape:pageopacity="0.0"
     inkscape:pageshadow="2"
     inkscape:zoom="0.35"
     inkscape:cx="117.14286"
     inkscape:cy="560"
     inkscape:document-units="mm"
     inkscape:current-layer="layer1"
     showgrid="false"
     inkscape:window-width="1280"
     inkscape:window-height="800"
     inkscape:window-x="0"
     inkscape:window-y="0"
     inkscape:window-maximized="0" />
  <metadata
     id="metadata5112">
    <rdf:RDF>
      <cc:Work
         rdf:about="">
        <dc:format>image/svg+xml</dc:format>
        <dc:type
           rdf:resource="http://purl.org/dc/dcmitype/StillImage" />
        <dc:title></dc:title>
      </cc:Work>
    </rdf:RDF>
  </metadata>
  <g
     inkscape:label="Ebene 1"
     inkscape:groupmode="layer"
     id="layer1">
    <g
       transform="translate(-46.11569,-54.488904)"
       id="g4638"
       inkscape:export-xdpi="96"
       inkscape:export-ydpi="96">
      <g
         transform="matrix(0.97886744,0,0,0.97886744,-24.925316,-2.4195887)"
         id="text4575"
         style="font-style:normal;font-weight:normal;font-size:10.58333302px;line-height:1.25;font-family:sans-serif;letter-spacing:0px;word-spacing:0px;fill:#000000;fill-opacity:1;stroke:none;stroke-width:0.26458332"
         aria-label="B">
        <path
           inkscape:connector-curvature="0"
           id="path4601"
           d="m 138.84839,115.17335 h -11.26701 c 8.20445,2.20047 11.6654,4.72775 10.32684,7.58575 -1.34408,2.89069 -5.22901,4.71348 -11.6548,5.46837 l -0.0552,4.36365 c 0.68124,-0.12888 2.16341,0.48792 4.4465,1.8504 2.28309,1.34408 4.07827,2.87228 5.38551,4.5846 1.32567,1.6939 1.5282,3.26813 0.6076,4.72268 -0.9206,1.45455 -4.20714,2.24626 -9.85964,2.37514 h -1.13233 l -5.27504,-0.0552 -0.16456,-30.89536 h -3.89184 l 0.107,33.7124 3.89414,-0.0552 3.12084,-0.0828 9.83202,0.0828 c 5.54201,-2.06214 8.00002,-5.10012 7.37401,-9.11394 -0.60761,-4.03224 -3.40623,-7.21752 -8.39589,-9.55584 0,-0.20257 0.0369,-0.25779 0.11045,-0.1657 0.0921,0.0737 0.13809,-0.0184 0.13809,-0.27619 1.47296,-0.22094 3.0656,-0.89298 4.77793,-2.01611 1.71231,-1.12314 3.01036,-2.45801 3.89414,-4.00461 0.88377,-1.56503 1.08631,-3.2129 0.60759,-4.94363 -0.3363,-1.27792 -1.32231,-2.47031 -2.92636,-3.58114 z"
           style="font-style:normal;font-variant:normal;font-weight:normal;font-stretch:normal;font-size:50.79999924px;font-family:Ani;-inkscape-font-specification:'Ani, Normal';font-variant-ligatures:normal;font-variant-caps:normal;font-variant-numeric:normal;font-feature-settings:normal;text-align:start;writing-mode:lr-tb;text-anchor:start;stroke-width:0.29459226" />
      </g>
      <g
         transform="matrix(1.0437189,0,0,1.0437189,29.274729,-1.7079963)"
         id="text4579"
         style="font-style:normal;font-weight:normal;font-size:10.58333302px;line-height:1.25;font-family:sans-serif;letter-spacing:0px;word-spacing:0px;fill:#000000;fill-opacity:1;stroke:none;stroke-width:0.26458332"
         aria-label="S">
        <path
           inkscape:connector-curvature="0"
           id="path4628"
           d="m 117.73233,107.33527 h -13.76557 c -2.60083,1.01891 -4.327569,2.27937 -5.070492,3.81165 -1.041797,2.18281 -0.909506,4.34909 0.396875,6.49883 1.322907,2.14974 3.778577,3.81993 7.366987,5.01055 3.58841,1.19063 5.85391,2.68718 6.79649,4.48965 0.95911,1.78594 1.38079,3.15846 1.26504,4.11757 -0.11576,0.94258 -0.89297,2.13321 -2.33164,3.57188 -1.43867,1.43867 -5.2586,1.91822 -11.45977,1.43867 l -6.449217,-3.59668 -2.158008,2.87734 4.291211,2.87735 14.089064,0.5209 c 5.42395,-2.26549 8.31783,-4.77077 8.68164,-7.51582 0.3638,-2.74505 -0.47128,-4.89479 -2.50527,-6.44922 -2.03398,-1.55443 -4.42351,-2.8112 -7.16856,-3.77031 -2.74505,-0.95911 -4.59714,-2.27377 -5.55625,-3.94395 -0.95911,-1.67019 -0.84335,-3.34037 0.34727,-5.01055 l 4.31601,-3.22461 6.07715,-0.37207 3.94395,3.59668 1.43867,-2.158 z"
           style="font-style:normal;font-variant:normal;font-weight:normal;font-stretch:normal;font-size:50.79999924px;font-family:Ani;-inkscape-font-specification:'Ani, Normal';font-variant-ligatures:normal;font-variant-caps:normal;font-variant-numeric:normal;font-feature-settings:normal;text-align:start;writing-mode:lr-tb;text-anchor:start;stroke-width:0.26458332" />
      </g>
      <path
         style="font-style:normal;font-variant:normal;font-weight:normal;font-stretch:normal;font-size:50.79999924px;line-height:1.25;font-family:Ani;-inkscape-font-specification:'Ani, Normal';font-variant-ligatures:normal;font-variant-caps:normal;font-variant-numeric:normal;font-feature-settings:normal;text-align:start;letter-spacing:0px;word-spacing:0px;writing-mode:lr-tb;text-anchor:start;fill:#000000;fill-opacity:1;stroke:none;stroke-width:0.43454161"
         d="m 88.931082,109.75762 -11.106571,-3.6711 H 187.21742 l 11.64183,3.86954"
         id="path4614"
         inkscape:connector-curvature="0" />
      <path
         style="font-style:normal;font-variant:normal;font-weight:normal;font-stretch:normal;font-size:50.79999924px;line-height:1.25;font-family:Ani;-inkscape-font-specification:'Ani, Normal';font-variant-ligatures:normal;font-variant-caps:normal;font-variant-numeric:normal;font-feature-settings:normal;text-align:start;letter-spacing:0px;word-spacing:0px;writing-mode:lr-tb;text-anchor:start;fill:#000000;fill-opacity:1;stroke:none;stroke-width:0.26370612"
         d="m 173.06896,110.43686 -0.0731,11.62936 h 15.04632 l 4.04808,4.31088 h -19.09442 v 12.25596 h 18.89933 l 4.24321,4.6367 H 184.8475 l -11.24205,0.0501 -6.14533,-0.0501 v -32.94988"
         id="path4591"
         inkscape:connector-curvature="0" />
    </g>
  </g>
</svg>
